<svg width="24" height="24" viewBox="0 0 24 24" fill="none" xmlns="http://www.w3.org/2000/svg">
<path d="M5.25008 9.74996H18.7501C18.8984 9.74993 19.0434 9.70593 19.1667 9.62351C19.29 9.5411 19.3861 9.42398 19.4428 9.28695C19.4996 9.14993 19.5144 8.99915 19.4855 8.85369C19.4566 8.70822 19.3852 8.5746 19.2803 8.46971L12.5303 1.71971C12.3897 1.57911 12.199 1.50012 12.0001 1.50012C11.8012 1.50012 11.6105 1.57911 11.4698 1.71971L4.71983 8.46971C4.61498 8.5746 4.54357 8.70822 4.51465 8.85369C4.48572 8.99915 4.50057 9.14993 4.55733 9.28695C4.61408 9.42398 4.71018 9.5411 4.83349 9.62351C4.9568 9.70593 5.10177 9.74993 5.25008 9.74996ZM18.7501 14.25H5.25008C5.10177 14.25 4.9568 14.294 4.83349 14.3764C4.71018 14.4588 4.61408 14.5759 4.55733 14.713C4.50057 14.85 4.48572 15.0008 4.51465 15.1462C4.54357 15.2917 4.61498 15.4253 4.71983 15.5302L11.4698 22.2802C11.6105 22.4208 11.8012 22.4998 12.0001 22.4998C12.199 22.4998 12.3897 22.4208 12.5303 22.2802L19.2803 15.5302C19.3852 15.4253 19.4566 15.2917 19.4855 15.1462C19.5144 15.0008 19.4996 14.85 19.4428 14.713C19.3861 14.5759 19.29 14.4588 19.1667 14.3764C19.0434 14.294 18.8984 14.25 18.7501 14.25Z" fill="black"/>
</svg>
